<svg id="Component_55_6" data-name="Component 55 – 6" xmlns="http://www.w3.org/2000/svg" width="211.189" height="18"
     viewBox="0 0 211.189 18">
  <defs>
    <style>
      .cls-1 {
      fill: #00c9ea;
      }
      
      .cls-2 {
      fill: #fff;
      }
    </style>
  </defs>
  <g id="Group_23" data-name="Group 23">
    <g id="Lunit_INSIGHT_CXR_darkbg">
      <path id="Path_29" data-name="Path 29" class="cls-1"
            d="M204.213,128.627a3.8,3.8,0,0,1-3.6-2.455,3.543,3.543,0,0,1,1.262-4.054,3.948,3.948,0,0,1,4.421-.172l5.63-5.372a3.769,3.769,0,0,1-.578-2.037,3.809,3.809,0,1,1,3.805,3.638,4.226,4.226,0,0,1-2.131-.555l-5.63,5.369a3.481,3.481,0,0,1,.629,2A3.725,3.725,0,0,1,204.213,128.627Zm0-5.8a2.238,2.238,0,0,0-2.219,1.735,2.142,2.142,0,0,0,1.345,2.42,2.32,2.32,0,0,0,2.746-.786,2.09,2.09,0,0,0-.269-2.728l-.013-.012h0a2.3,2.3,0,0,0-1.591-.618Zm9.28-6.713h0a2.4,2.4,0,0,0,1.652.58,2.16,2.16,0,1,0-2.258-2.158,2.183,2.183,0,0,0,.606,1.579Z"
            transform="translate(-200.403 -110.875)"/>
      <path id="Path_30" data-name="Path 30" class="cls-2"
            d="M301.785,127.307h-6.8c-1.522,0-1.522-.143-1.522-1.846V111.7a.683.683,0,0,0-.333-.668.754.754,0,0,0-.775,0,.683.683,0,0,0-.333.668v15.139a1.773,1.773,0,0,0,1.794,1.848h7.964a.689.689,0,1,0,0-1.378Z"
            transform="translate(-268.777 -110.892)"/>
      <path id="Path_31" data-name="Path 31" class="cls-2"
            d="M455.728,130.19a.733.733,0,0,0-.728.713v12.117a.721.721,0,0,0,1.441,0V130.9A.733.733,0,0,0,455.728,130.19Z"
            transform="translate(-393.236 -126.089)"/>
      <path id="Path_32" data-name="Path 32" class="cls-2"
            d="M454.609,110.85a1.109,1.109,0,1,0,1.109,1.109,1.109,1.109,0,0,0-1.109-1.109Z"
            transform="translate(-392.11 -110.838)"/>
      <path id="Path_33" data-name="Path 33" class="cls-2"
            d="M481,127.185h-.449c-1.522,0-1.522-.141-1.522-1.846v-8.668h2.03a.646.646,0,0,0,.6-.286.586.586,0,0,0,0-.64.646.646,0,0,0-.6-.286h-2.03v-3.881a.683.683,0,0,0-.333-.668.754.754,0,0,0-.775,0,.684.684,0,0,0-.333.668v3.881H475.96a.646.646,0,0,0-.6.286.586.586,0,0,0,0,.64.646.646,0,0,0,.6.286H477.6v10.053a1.773,1.773,0,0,0,1.794,1.848h1.616a.69.69,0,0,0,0-1.38Z"
            transform="translate(-408.657 -110.802)"/>
      <path id="Path_34" data-name="Path 34" class="cls-2"
            d="M403.964,129.64a6.529,6.529,0,0,0-4.749,2.121V130.6a.71.71,0,1,0-1.418,0V142.52a.71.71,0,1,0,1.418,0v-9.034a5.95,5.95,0,0,1,4.285-2.562c1.91,0,3.191.761,3.191,3.3v8.3a.71.71,0,1,0,1.418,0v-8.593C408.109,130.949,406.635,129.64,403.964,129.64Z"
            transform="translate(-350.001 -125.679)"/>
      <path id="Path_35" data-name="Path 35" class="cls-2"
            d="M352.019,129.515a.723.723,0,0,0-.708.71v9.021a5.951,5.951,0,0,1-4.285,2.562c-1.908,0-3.191-.761-3.191-3.3v-8.286a.71.71,0,1,0-1.418,0v8.593c0,2.973,1.474,4.285,4.148,4.285a6.528,6.528,0,0,0,4.747-2.121v1.164a.71.71,0,1,0,1.418,0V130.223A.723.723,0,0,0,352.019,129.515Z"
            transform="translate(-308.03 -125.554)"/>
      <path id="Path_36" data-name="Path 36" class="cls-1"
            d="M902.28,130.739a7.545,7.545,0,0,1,7.672-7.865,6.85,6.85,0,0,1,5.16,2.169.6.6,0,0,1,.16.434.647.647,0,0,1-1.119.434,5.635,5.635,0,0,0-4.2-1.849c-3.539,0-6.3,2.717-6.3,6.69a6.327,6.327,0,0,0,6.3,6.687,5.622,5.622,0,0,0,4.224-1.872.576.576,0,0,1,.457-.206.657.657,0,0,1,.662.639.55.55,0,0,1-.183.434,6.787,6.787,0,0,1-5.16,2.192A7.573,7.573,0,0,1,902.28,130.739Z"
            transform="translate(-733.814 -120.629)"/>
      <path id="Path_37" data-name="Path 37" class="cls-1"
            d="M977.193,138.251a.657.657,0,0,1-.639.662.723.723,0,0,1-.525-.206l-5.366-6.713-5.389,6.713a.723.723,0,0,1-.525.205.657.657,0,0,1-.639-.662.709.709,0,0,1,.16-.411l5.617-6.8-5.3-6.416a.8.8,0,0,1-.137-.411.662.662,0,0,1,.662-.662.6.6,0,0,1,.507.254l5.046,6.256,5.023-6.256a.6.6,0,0,1,.507-.254.662.662,0,0,1,.662.662.82.82,0,0,1-.16.411l-5.284,6.4,5.617,6.827A.71.71,0,0,1,977.193,138.251Z"
            transform="translate(-779.958 -121.133)"/>
      <path id="Path_38" data-name="Path 38" class="cls-1"
            d="M1040.189,138.06a.661.661,0,0,1,.117.411.634.634,0,0,1-.617.639.69.69,0,0,1-.568-.289l-4.247-6.089h-3.585v5.708a.657.657,0,0,1-.639.662.677.677,0,0,1-.662-.662V124.516a.639.639,0,0,1,.708-.708h4.978a4.315,4.315,0,0,1,4.635,4.452,4.149,4.149,0,0,1-4,4.358Zm-8.9-6.5h4.282a3.283,3.283,0,1,0,0-6.563h-4.27Z"
            transform="translate(-829.12 -121.323)"/>
      <path id="Path_39" data-name="Path 39" class="cls-2"
            d="M536.41,137.752V123.865a.657.657,0,0,1,.655-.655.634.634,0,0,1,.632.655v13.887a.649.649,0,0,1-.632.655A.672.672,0,0,1,536.41,137.752Z"
            transform="translate(-454.893 -120.88)"/>
      <path id="Path_40" data-name="Path 40" class="cls-2"
            d="M570.386,138.069l-9.28-12.736v12.418a.652.652,0,0,1-.632.655.67.67,0,0,1-.654-.655V124.068a.837.837,0,0,1,.835-.857.87.87,0,0,1,.7.36l9.212,12.525V123.865a.637.637,0,0,1,.632-.655.657.657,0,0,1,.657.655v13.73a.819.819,0,0,1-.792.812A.8.8,0,0,1,570.386,138.069Z"
            transform="translate(-472.829 -120.88)"/>
      <path id="Path_41" data-name="Path 41" class="cls-2"
            d="M623,135.6a.649.649,0,0,1,.632-.655.741.741,0,0,1,.452.157,6.01,6.01,0,0,0,4.267,1.776c3.093,0,3.973-1.715,3.973-3,0-2.123-2.009-2.709-4.13-3.275-2.372-.655-4.9-1.332-4.9-4.11,0-2.461,2.215-4.019,5.013-4.019a6.53,6.53,0,0,1,4.653,1.738.591.591,0,0,1,.254.474.649.649,0,0,1-.657.632.508.508,0,0,1-.406-.157,5.37,5.37,0,0,0-3.907-1.522c-2.075,0-3.59,1.152-3.59,2.775,0,1.776,1.875,2.3,3.93,2.846,2.438.7,5.1,1.466,5.1,4.516,0,1.941-1.286,4.267-5.35,4.267a7.164,7.164,0,0,1-5.125-1.986A.581.581,0,0,1,623,135.6Z"
            transform="translate(-520.686 -120.328)"/>
      <path id="Path_42" data-name="Path 42" class="cls-2"
            d="M680.86,137.752V123.865a.655.655,0,0,1,.655-.655.637.637,0,0,1,.632.655v13.887a.652.652,0,0,1-.632.655A.67.67,0,0,1,680.86,137.752Z"
            transform="translate(-564.299 -120.88)"/>
      <path id="Path_43" data-name="Path 43" class="cls-2"
            d="M715.355,131.026v4.041a1.015,1.015,0,0,1-.363.86,7.743,7.743,0,1,1-5.361-13.436,7.146,7.146,0,0,1,5.262,2.1.508.508,0,0,1,.157.406.581.581,0,0,1-.609.609.606.606,0,0,1-.406-.157,6.238,6.238,0,0,0-4.4-1.776c-3.552,0-6.276,2.687-6.276,6.616a6.285,6.285,0,0,0,6.276,6.637,6.4,6.4,0,0,0,4.424-1.829v-3.62h-5.183a.576.576,0,1,1,0-1.152h5.782a.632.632,0,0,1,.7.7Z"
            transform="translate(-580.635 -120.342)"/>
      <path id="Path_44" data-name="Path 44" class="cls-2"
            d="M781.938,137.752v-6.571h-9.552v6.571a.649.649,0,0,1-.632.655.672.672,0,0,1-.655-.655V123.865a.657.657,0,0,1,.655-.655.634.634,0,0,1,.632.655v6.142h9.552v-6.142a.655.655,0,1,1,1.309,0v13.887a.655.655,0,1,1-1.309,0Z"
            transform="translate(-632.976 -120.88)"/>
      <path id="Path_45" data-name="Path 45" class="cls-2"
            d="M837.786,137.95v-13.3h-4.4a.589.589,0,0,1,0-1.175H843.53a.589.589,0,1,1,0,1.175H839.1v13.3a.655.655,0,1,1-1.309,0Z"
            transform="translate(-679.739 -121.078)"/>
    </g>
  </g>
</svg>
