<svg xmlns="http://www.w3.org/2000/svg" width="24" height="24" viewBox="0 0 24 24">
  <g transform="translate(-4935 -7650)">
    <path d="M204.51,130.011a4.094,4.094,0,0,1-3.884-2.647,3.819,3.819,0,0,1,1.361-4.37,4.256,4.256,0,0,1,4.766-.186l6.069-5.791a4.064,4.064,0,0,1-.624-2.2,4.107,4.107,0,1,1,4.1,3.922,4.556,4.556,0,0,1-2.3-.6l-6.069,5.788a3.753,3.753,0,0,1,.678,2.159A4.015,4.015,0,0,1,204.51,130.011Zm0-6.248a2.412,2.412,0,0,0-2.392,1.87,2.309,2.309,0,0,0,1.45,2.609,2.5,2.5,0,0,0,2.96-.848,2.253,2.253,0,0,0-.29-2.941l-.014-.013h0a2.48,2.48,0,0,0-1.715-.667Zm10-7.237h0a2.591,2.591,0,0,0,1.78.625,2.329,2.329,0,1,0-2.434-2.327,2.354,2.354,0,0,0,.654,1.7Z"
          transform="translate(4736.597 7542.1)"/>
  </g>
</svg>