<svg xmlns="http://www.w3.org/2000/svg" width="24" height="24" viewBox="0 0 24 24">
  <defs>
    <style>.a{fill:#5269e8;}.b{fill:#ad450e;}.c{fill:none;}</style>
  </defs>
  <g transform="translate(-1877 -1486)">
    <path class="a"
          d="M12,24A12,12,0,0,1,3.515,3.515,12,12,0,1,1,12,24ZM12,3.428A8.572,8.572,0,1,0,20.572,12,8.582,8.582,0,0,0,12,3.428Z"
          transform="translate(1877 1486)"/>
    <path class="b"
          d="M6,12a6,6,0,1,1,6-6A6.007,6.007,0,0,1,6,12ZM6,3.272A2.728,2.728,0,1,0,8.728,6,2.731,2.731,0,0,0,6,3.272Z"
          transform="translate(1883 1492)"/>
  </g>
</svg>