<svg xmlns="http://www.w3.org/2000/svg" viewBox="0 0 20 20">
  <g>
    <path fill-rule="evenodd"
          d="M10.294,16.879C9.882,16.879 9.507,17.295 9.507,17.808L9.507,18.738C9.507,19.253 9.882,19.668 10.294,19.668C10.704,19.668 11.077,19.253 11.077,18.738L11.077,17.808C11.077,17.295 10.704,16.878 10.294,16.878L10.294,16.879ZM16.494,15.518L17.145,16.168C17.507,16.531 17.565,17.061 17.275,17.351C16.986,17.64 16.457,17.582 16.094,17.218C15.993,17.119 15.542,16.668 15.442,16.568C15.079,16.205 15.018,15.675 15.309,15.385C15.601,15.095 16.131,15.154 16.494,15.518ZM4.1,15.515C4.461,15.153 4.993,15.092 5.283,15.383C5.572,15.675 5.513,16.204 5.15,16.568L4.499,17.218C4.138,17.581 3.607,17.638 3.317,17.348C3.026,17.058 3.086,16.531 3.449,16.167L4.1,15.515ZM13.917,13.992C12.993,14.915 11.715,15.484 10.297,15.484C10.292,15.484 10.287,15.484 10.282,15.484C7.486,15.484 5.185,13.183 5.185,10.387C5.185,10.382 5.185,10.377 5.185,10.372C5.185,10.366 5.185,10.36 5.185,10.354C5.185,7.558 7.486,5.257 10.282,5.257C10.287,5.257 10.292,5.257 10.297,5.257C10.302,5.257 10.306,5.257 10.311,5.257C13.108,5.257 15.41,7.559 15.41,10.356C15.41,10.361 15.41,10.367 15.41,10.372C15.414,11.729 14.876,13.033 13.917,13.992ZM10.03,14.09C10.022,14.09 10.014,14.09 10.006,14.09C7.979,14.09 6.312,12.423 6.312,10.396C6.312,10.388 6.312,10.38 6.312,10.372C6.312,10.363 6.312,10.354 6.312,10.345C6.312,8.319 7.979,6.652 10.005,6.652C10.013,6.652 10.022,6.652 10.03,6.652L10.03,14.09ZM2.859,9.517C3.372,9.517 3.789,9.893 3.789,10.303L3.79,10.303C3.79,10.713 3.373,11.087 2.86,11.087L1.93,11.087C1.417,11.087 1,10.713 1,10.303C1,9.893 1.417,9.517 1.93,9.517L2.859,9.517ZM18.664,9.517C19.177,9.517 19.594,9.893 19.594,10.303C19.594,10.714 19.178,11.087 18.664,11.087L17.754,11.087C17.24,11.087 16.824,10.713 16.824,10.303C16.824,9.892 17.24,9.517 17.753,9.517L18.664,9.517ZM4.099,5.225C4,5.125 3.549,4.675 3.447,4.575C3.087,4.211 3.026,3.681 3.317,3.391C3.607,3.1 4.138,3.16 4.5,3.524C4.601,3.622 5.05,4.074 5.15,4.174C5.512,4.537 5.572,5.068 5.282,5.358C4.991,5.648 4.462,5.588 4.1,5.225L4.099,5.225ZM16.495,5.225L17.145,4.575C17.508,4.211 17.567,3.682 17.276,3.391C16.986,3.101 16.456,3.161 16.095,3.524C15.993,3.624 15.543,4.074 15.443,4.174C15.08,4.538 15.021,5.068 15.311,5.358C15.601,5.648 16.133,5.588 16.495,5.225ZM10.294,3.863C10.704,3.863 11.077,3.448 11.077,2.933L11.077,2.003C11.077,1.489 10.704,1.073 10.294,1.073C9.882,1.073 9.507,1.489 9.507,2.003L9.507,2.933C9.507,3.448 9.882,3.863 10.294,3.863Z"/>
  </g>
</svg>
