<svg xmlns="http://www.w3.org/2000/svg" width="24" height="24" viewBox="0 0 24 24">
  <g transform="translate(-1873.422 -1538.422)">
    <path d="M6,12a6,6,0,1,1,6-6A6.007,6.007,0,0,1,6,12ZM6,3.272A2.728,2.728,0,1,0,8.728,6,2.731,2.731,0,0,0,6,3.272Z"
          transform="translate(1879.422 1544.422)"/>
    <path d="M12,24A12,12,0,0,1,3.515,3.515,12,12,0,1,1,12,24ZM12,2.286A9.714,9.714,0,1,0,21.714,12,9.726,9.726,0,0,0,12,2.286Z"
          transform="translate(1873.422 1538.422)"/>
  </g>
</svg>