<svg xmlns="http://www.w3.org/2000/svg" viewBox="0 0 20 20">
  <g fill-rule="evenodd">
    <path
        d="M9.117 8.701h1.156V6.388H9.117v2.313zm0 3.471h1.156V9.859H9.117v2.313zm0 3.47h1.156v-2.313H9.117v2.313zm0 3.471h1.156v-2.314H9.117v2.314zM12.67 4.442l2.723 1.092V2.67l-.73.473C12.828.518 9.223-.197 6.538 1.558c-1.147.75-2.138 2.213-2.541 3.415L5.64 4.94a4.35 4.35 0 0 1 1.715-2.149c2.004-1.309 4.69-.786 6.072 1.157l-.759.494zM7.188 12.782c0 .173-.176.298-.176.298L2.06 16.147c-.361.237-.656.06-.656-.387V9.803c0-.45.295-.623.656-.386l4.952 3.068s.176.124.176.297M12.191 12.78c0-.172.176-.296.176-.296l4.952-3.067c.361-.238.656-.062.656.386v5.957c0 .449-.295.624-.656.387l-4.952-3.068s-.176-.125-.176-.298"/>
  </g>
</svg>
